# xmcd
#
# Track frame offsets:
#	183
#	12778
#	22025
#	34773
#	45003
#	57330
#	68545
#	79728
#	90918
#	103263
#	114313
#	125835
#	137300
#	149670
#	161890
#	172298
#	182818
#	196130
#	206893
#	217453
#	227630
#	238963
#	258510
#	269743
#	278733
#	289663
#	300848
#
# Disc length: 4166 seconds
#
# Revision: 4294836225
# Processed by: cddbd v1.5.2PL0 Copyright (c) Steve Scherf et al.
# Submitted via: EZCDAudioConverter 8.1.1.1
#
DISCID=9310441b
DTITLE=Dave 'Baby' Cortez - Organ Shindig-Tweety Pie-In Orbit
DYEAR=1995
DGENRE=R&B
TTITLE0=Shake
TTITLE1=Watermelon Man
TTITLE2=The Boy From New York City
TTITLE3=Can't Buy Me Love
TTITLE4=How Sweet It Is -To Be Loved by You
TTITLE5=Twine Time
TTITLE6=Stagger Lee
TTITLE7=Yeh Yeh
TTITLE8=Searchin'
TTITLE9=Come See About Me
TTITLE10=Where Did Our Love Go
TTITLE11=Paper Tiger
TTITLE12=Tweetie Pie
TTITLE13=Things Ain't What They Used to Be
TTITLE14=Count Down Pt 1
TTITLE15=Count Down Pt 2
TTITLE16=Belly Rub Pt 1
TTITLE17=Belly Rub Pt 2
TTITLE18=Do Any Dance
TTITLE19=Peg Leg
TTITLE20=Sticks and Stones
TTITLE21=My Sweet Baby Pts 1-2
TTITLE22=In Orbit
TTITLE23=Summertime
TTITLE24=You Talk Too Much
TTITLE25=Hula Hoop
TTITLE26=Come Back
EXTD=
EXTT0=
EXTT1=
EXTT2=
EXTT3=
EXTT4=
EXTT5=
EXTT6=
EXTT7=
EXTT8=
EXTT9=
EXTT10=
EXTT11=
EXTT12=
EXTT13=
EXTT14=
EXTT15=
EXTT16=
EXTT17=
EXTT18=
EXTT19=
EXTT20=
EXTT21=
EXTT22=
EXTT23=
EXTT24=
EXTT25=
EXTT26=
PLAYORDER=
